<svg version="1.1" id="Layer_1" xmlns="http://www.w3.org/2000/svg" xmlns:xlink="http://www.w3.org/1999/xlink" x="0px" y="0px"
	 width="100%" viewBox="0 0 592 592" enable-background="new 0 0 592 592" xml:space="preserve">
<path fill="#000000" opacity="1.000000" stroke="none" 
	d="
M352.330414,398.218140 
	C349.996429,407.664215 347.641144,416.681976 345.506622,425.751648 
	C344.788757,428.801910 343.505798,430.217224 339.669250,428.813477 
	C347.296631,398.005371 354.933624,367.158447 362.596924,336.205261 
	C348.550201,334.884399 332.989594,343.452087 338.076233,357.328308 
	C333.573761,358.480011 330.339844,355.642944 330.840149,350.662506 
	C331.399506,345.094269 334.071228,340.564484 338.539490,337.178894 
	C344.712006,332.501892 351.867767,330.378540 359.445618,329.800903 
	C362.559631,329.563538 364.480774,328.536072 365.236237,325.482239 
	C371.508362,300.129547 377.793365,274.780060 384.052765,249.424240 
	C384.163635,248.975266 384.006073,248.459991 383.923584,247.223175 
	C364.885712,246.599274 346.251862,243.769257 329.840790,233.560181 
	C327.505157,235.191330 328.245056,237.199661 328.150665,238.903046 
	C326.345917,271.479095 324.377594,304.043579 323.001709,336.646118 
	C321.864777,363.585938 320.193939,390.505524 319.311707,417.460205 
	C319.235443,419.790924 319.182190,422.130127 318.928589,424.444611 
	C318.757050,426.010345 318.934814,428.219055 316.652618,428.271912 
	C314.304718,428.326324 313.836517,426.310120 313.689331,424.389740 
	C313.066040,416.257812 312.125305,408.132355 311.923462,399.989075 
	C311.106476,367.028046 307.965088,334.188446 307.384552,301.197754 
	C306.933624,275.572571 305.393555,249.951965 304.991913,224.309189 
	C304.916443,219.491867 305.330566,214.655197 305.731598,209.845215 
	C306.167603,204.615631 309.882263,200.304871 314.392609,199.430130 
	C318.373535,198.658081 322.144592,201.232269 324.701324,206.487656 
	C327.246948,211.720215 327.172424,217.490479 327.904175,223.065308 
	C328.284607,225.963943 329.392914,227.994873 331.690765,229.697937 
	C347.029419,241.066452 364.525543,244.462158 383.151276,243.813583 
	C385.344574,243.737198 386.381683,242.519211 387.031311,240.588806 
	C388.081635,237.467621 387.969055,234.379807 387.141357,231.248871 
	C384.888000,222.725174 382.827209,214.145676 380.344238,205.689835 
	C379.219513,201.859497 380.570526,201.044312 384.033661,200.883163 
	C398.134766,200.227020 398.098938,200.168243 401.196075,213.855469 
	C402.883484,221.312698 404.756195,228.728012 406.442017,236.185562 
	C407.254181,239.778137 408.789429,241.045959 412.773621,240.020340 
	C418.712830,238.491486 424.911713,238.004547 430.918701,236.699738 
	C453.210693,231.857697 478.859314,247.058075 485.035614,273.759644 
	C490.529358,297.510468 483.114716,317.848480 466.023285,334.641388 
	C459.080017,341.463348 449.683746,343.312866 440.269470,344.191284 
	C433.976624,344.778473 433.847107,344.756866 435.511475,351.054199 
	C441.924683,375.319672 448.358582,399.579651 454.770233,423.845551 
	C455.185608,425.417694 455.478119,427.022308 455.979950,429.303162 
	C450.962341,429.303162 446.371826,429.432983 441.792877,429.258850 
	C438.592529,429.137146 438.632690,426.144409 438.073364,424.056335 
	C432.908478,404.774841 427.856384,385.463165 422.769806,366.160706 
	C421.158691,360.046997 419.416290,353.963989 417.984985,347.808563 
	C417.327759,344.982056 416.007812,343.556396 413.075226,343.105042 
	C399.275085,340.981201 385.447662,338.982910 371.868256,335.632202 
	C368.373199,334.769775 367.661987,337.085510 367.003906,339.734344 
	C362.793121,356.683258 358.516663,373.615906 354.257568,390.552795 
	C353.648529,392.974823 353.016663,395.391113 352.330414,398.218140 
M450.083466,243.352234 
	C437.811707,240.705200 425.656891,241.723389 413.522461,244.380829 
	C410.013428,245.149338 408.846893,246.715256 409.834381,250.372437 
	C412.172241,259.030609 414.116058,267.794250 416.337128,276.485107 
	C421.233063,295.642700 426.209381,314.779724 431.131775,333.930573 
	C431.771942,336.421143 432.257721,338.913940 435.729828,338.693665 
	C450.010345,337.787811 462.603241,333.630219 470.274078,320.378326 
	C477.187988,308.434082 480.520142,295.572388 479.868774,281.693420 
	C478.909088,261.245636 470.279022,249.766861 450.083466,243.352234 
M380.881500,283.236481 
	C377.573944,296.639069 374.242798,310.035919 370.971039,323.447235 
	C369.761139,328.406860 370.459412,329.458405 375.578247,329.581848 
	C380.960297,329.711639 386.129761,330.839691 391.307373,332.102295 
	C398.806641,333.931061 406.319183,335.705536 415.254974,337.845337 
	C407.138580,307.024597 399.364716,277.504639 391.590881,247.984680 
	C391.001038,247.969788 390.411224,247.954880 389.821381,247.939987 
	C386.920624,259.442261 384.019897,270.944519 380.881500,283.236481 
M316.835846,222.857941 
	C315.577271,221.936447 314.799438,220.163300 312.429993,220.543747 
	C312.246765,230.317459 311.258240,240.083023 313.435425,249.748611 
	C313.893463,251.782043 314.579529,254.409531 317.331146,254.153900 
	C319.741638,253.929947 320.136902,251.449524 320.261536,249.492004 
	C320.620270,243.857880 320.609161,238.198700 321.025726,232.570267 
	C321.305511,228.789856 320.436493,225.683945 316.835846,222.857941 
M318.909729,215.831039 
	C319.058105,215.902878 319.200470,216.009964 319.356537,216.036499 
	C319.509186,216.062454 319.812347,216.022354 319.816864,215.983871 
	C320.190674,212.806412 320.129059,209.847763 315.814941,207.950378 
	C315.404846,211.708725 316.993744,213.562759 318.909729,215.831039 
z"/>
<path fill="#000000" opacity="1.000000" stroke="none" 
	d="
M181.291046,426.642273 
	C181.177872,428.818756 180.556030,430.100433 178.557220,429.755768 
	C177.182724,429.518768 176.813980,428.353577 176.753815,427.112000 
	C176.705475,426.114136 176.685440,425.113770 176.688599,424.114624 
	C176.781342,394.793091 176.354614,365.457794 177.122406,336.153839 
	C177.890579,306.835480 176.872116,277.513245 177.866882,248.224869 
	C178.354553,233.867020 176.253006,220.481415 169.755295,207.718506 
	C168.811432,205.864517 167.612305,203.944611 167.958267,201.160522 
	C173.541809,201.160522 179.119537,201.020355 184.685104,201.219940 
	C187.447693,201.319031 188.265945,203.910675 189.306732,205.973175 
	C204.612259,236.303177 219.900345,266.641998 235.203232,296.973328 
	C246.602829,319.568115 258.015167,342.156464 269.433411,364.741852 
	C270.019684,365.901520 270.448883,367.220520 271.925018,367.806519 
	C273.307343,366.219360 272.651917,364.312103 272.643402,362.590851 
	C272.389313,311.285339 272.068024,259.980103 271.854553,208.674408 
	C271.845184,206.425262 270.537994,202.404724 273.606445,202.320602 
	C277.360626,202.217682 275.910034,206.376053 275.913177,208.698166 
	C276.008423,278.503906 276.006897,348.309814 276.020508,418.115692 
	C276.021027,420.895020 276.020569,423.674347 274.879669,426.848541 
	C244.186615,364.919250 213.493561,302.989990 182.800491,241.060699 
	C182.302490,241.204468 181.804474,241.348236 181.306473,241.492020 
	C181.306473,303.055450 181.306473,364.618866 181.291046,426.642273 
z"/>
</svg>